<svg width="100%" viewBox="0 0 24 24"><circle stroke="none" fill="#15C39A" cx="12" cy="12" r="11"></circle><path d="M11.18 10.273c-.593 0-1.068.53-.952 1.14.08.46.522.784.997.784h1.496l.87-.115c-1.39 2.016-3.79 2.95-6.423 2.546-2.144-.334-3.988-1.774-4.765-3.79-1.762-4.575 1.6-8.942 5.97-8.942 2.285 0 4.28 1.325 5.427 2.927v.034c.3.438.903.565 1.344.254.417-.287.533-.83.278-1.266h.01C13.846 1.39 11.006-.19 7.793.018 3.633.318.247 3.705.015 7.853c-.278 4.828 3.57 8.768 8.37 8.768 2.516 0 4.766-1.093 6.307-2.856l-.184 1.014v.91c0 .472.325.91.788.99.615.116 1.148-.356 1.148-.944V10.26H11.18v.013z" fill="#FFF" stroke="none" fill-rule="evenodd" transform="scale(.8) translate(6.75 6.5)"></path></svg>