
<svg aria-hidden="true" class="image_f6phxwi" width="69" height="80" viewBox="0 0 69 80"><g fill="none" fill-rule="evenodd"><path d="M28.935 70C12.955 70 0 57.045 0 41.065 0 25.085 12.955 12.13 28.935 12.13c15.98 0 28.936 12.954 28.936 28.935C57.87 57.045 44.917 70 28.936 70zm0-12.242c9.22 0 16.694-7.474 16.694-16.693 0-9.22-7.475-16.694-16.695-16.694s-16.693 7.475-16.693 16.695 7.474 16.693 16.693 16.693z" fill="#4C7AF1"></path><path d="M28.935 57.758c-9.22 0-16.693-7.474-16.693-16.693 0-9.22 7.474-16.694 16.693-16.694 9.22 0 16.694 7.475 16.694 16.695s-7.475 16.693-16.695 16.693zm0-11.13a5.564 5.564 0 1 0 0-11.128 5.565 5.565 0 0 0 .001 11.129z" fill="#BCDBFB"></path><circle fill="#FFF" cx="28.935" cy="41.065" r="5.565"></circle><path stroke="#4C7AF1" stroke-linecap="round" stroke-width="1.5" d="M15.024 68.016L9.46 78.5m32.274-10.484L47.298 78.5"></path><path d="M61.96 13.367a.65.65 0 0 1 .645.656.65.65 0 0 1-.646.655h-6.075L29.35 41.7a.636.636 0 0 1-.913 0 .663.663 0 0 1 0-.927L54.972 13.75V7.59a.65.65 0 0 1 .645-.656.65.65 0 0 1 .646.656v5.777h5.696zm3.17-3.215a.65.65 0 0 1 .646.655.65.65 0 0 1-.646.655h-6.34a.65.65 0 0 1-.647-.655V4.372a.65.65 0 0 1 .646-.655.65.65 0 0 1 .644.655v5.78h5.696zm3.17-3.218a.65.65 0 0 1 .647.656.65.65 0 0 1-.646.655h-6.34a.65.65 0 0 1-.647-.655V1.155A.65.65 0 0 1 61.96.5a.65.65 0 0 1 .645.655v5.78H68.3z" fill="#4C7AF1"></path><path d="M49.267 20.486l-8.586 8.757" stroke="#FFF" stroke-width="1.3"></path></g></svg>